<?xml version="1.0" standalone="no"?><!DOCTYPE svg PUBLIC "-//W3C//DTD SVG 1.1//EN" "http://www.w3.org/Graphics/SVG/1.1/DTD/svg11.dtd"><svg t="1588581958986" class="icon" viewBox="0 0 1024 1024" version="1.1" xmlns="http://www.w3.org/2000/svg" p-id="1996" xmlns:xlink="http://www.w3.org/1999/xlink" width="200" height="200"><defs><style type="text/css"></style></defs><path d="M512.1 364.5c-9.8 0-19.7-3.8-27.2-11.3L229.3 97.7c-15-15-15-39.4 0-54.4s39.4-15 54.4 0l228.4 228.4L740.5 43.3c15-15 39.4-15 54.4 0s15 39.4 0 54.4L539.3 353.2c-7.5 7.5-17.4 11.3-27.2 11.3z" fill="#29CCB6" p-id="1997"></path><path d="M256.5 658.5h511.6c28.1 0 51.1 23 51.1 51.1s-23 51.1-51.1 51.1H256.5c-28.1 0-51.1-23-51.1-51.1s23-51.1 51.1-51.1zM256.5 402.9h511.6c28.1 0 51.1 23 51.1 51.1s-23 51.1-51.1 51.1H256.5c-28.1 0-51.1-23-51.1-51.1s23-51.1 51.1-51.1z" fill="#4585F5" p-id="1998"></path><path d="M512.1 454.1c28.1 0 51.1 23 51.1 51.1v434.7c0 28.1-23 51.1-51.1 51.1S461 968 461 939.9V505.2c0-28.2 22.9-51.1 51.1-51.1z" fill="#4585F5" p-id="1999"></path></svg>