<?xml version="1.0" standalone="no"?><!DOCTYPE svg PUBLIC "-//W3C//DTD SVG 1.1//EN" "http://www.w3.org/Graphics/SVG/1.1/DTD/svg11.dtd"><svg t="1588847430543" class="icon" viewBox="0 0 1024 1024" version="1.1" xmlns="http://www.w3.org/2000/svg" p-id="1222" xmlns:xlink="http://www.w3.org/1999/xlink" width="200" height="200"><defs><style type="text/css"></style></defs><path d="M259.6 810.4c-9.4 0-18.8-3.6-26-10.8-14.3-14.3-14.2-37.5 0.2-51.8l453.3-450.3c14.4-14.2 37.6-14.2 51.8 0.2 14.3 14.3 14.2 37.5-0.2 51.8L285.5 799.7c-7.2 7.1-16.5 10.7-25.9 10.7z" fill="#29CCB6" p-id="1223"></path><path d="M793.9 442.5c-9.4 0-18.7-3.6-25.9-10.7l-171-171c-14.3-14.3-14.3-37.5 0-51.8 14.3-14.3 37.5-14.3 51.8 0l171 171c14.3 14.3 14.3 37.5 0 51.8-7.2 7.1-16.6 10.7-25.9 10.7zM345.9 950.8c-9.4 0-18.7-3.6-25.9-10.7L100.2 720.3c-14.3-14.3-14.3-37.5 0-51.8s37.5-14.3 51.8 0l219.8 219.8c14.3 14.3 14.3 37.5 0 51.8-7.2 7.1-16.5 10.7-25.9 10.7z" fill="#4585F5" p-id="1224"></path><path d="M110.1 992c-12 0-23.6-4.4-32.6-12.4-10.4-9.3-16.3-22.5-16.3-36.4V723.4c0-13 5.2-25.4 14.3-34.5L686.1 78.3c19.1-19.1 50-19.1 69.1 0l195.4 195.4c18.8 18.8 19.1 49.2 0.7 68.4L365.1 952.6c-7.9 8.3-18.5 13.5-29.8 14.7l-219.8 24.4c-1.9 0.2-3.7 0.3-5.4 0.3z m48.8-248.4v145l148-16.5 540.7-563.3-127-127-561.7 561.8z" fill="#4585F5" p-id="1225"></path></svg>